<svg width="15" height="12" viewBox="0 0 15 12" fill="none" xmlns="http://www.w3.org/2000/svg">
<path d="M7.25545 3.49575L7.28553 3.9919L6.78406 3.93114C4.95869 3.69826 3.364 2.90848 2.01002 1.58205L1.34807 0.923898L1.17757 1.40992C0.81651 2.49334 1.04719 3.63751 1.7994 4.40704C2.20058 4.83231 2.11031 4.89306 1.41828 4.63992C1.17757 4.55892 0.966952 4.49817 0.946893 4.52854C0.876687 4.59942 1.11739 5.52083 1.30796 5.88535C1.56872 6.39162 2.10029 6.88776 2.682 7.1814L3.17344 7.41429L2.59173 7.42441C2.03008 7.42441 2.01002 7.43454 2.0702 7.64717C2.27079 8.30532 3.06312 9.00397 3.94571 9.30774L4.56754 9.52037L4.02595 9.84438C3.22359 10.3102 2.28082 10.5734 1.33804 10.5937C0.886716 10.6038 0.515625 10.6443 0.515625 10.6747C0.515625 10.7759 1.73922 11.3429 2.45132 11.5657C4.5876 12.2239 7.12506 11.9403 9.03067 10.8164C10.3846 10.0165 11.7386 8.42683 12.3705 6.88776C12.7115 6.06761 13.0525 4.56905 13.0525 3.85014C13.0525 3.38437 13.0826 3.32362 13.6442 2.76672C13.9752 2.44271 14.2861 2.08832 14.3463 1.98707C14.4466 1.79468 14.4366 1.79468 13.9251 1.96682C13.0726 2.27058 12.9522 2.23008 13.3734 1.77443C13.6844 1.45042 14.0554 0.863146 14.0554 0.691014C14.0554 0.660638 13.905 0.711265 13.7345 0.802393C13.554 0.903647 13.1528 1.05553 12.8519 1.14666L12.3103 1.31879L11.8189 0.984651C11.5481 0.802393 11.167 0.599885 10.9664 0.539133C10.4549 0.397377 9.67255 0.417628 9.2112 0.579634C7.95751 1.03528 7.16518 2.20982 7.25545 3.49575Z" fill="white"/>
</svg>
