<svg width="15" height="11" viewBox="0 0 15 11" fill="none" xmlns="http://www.w3.org/2000/svg">
<path fill-rule="evenodd" clip-rule="evenodd" d="M12.9844 0.513158C13.5816 0.677841 14.052 1.16308 14.2116 1.77928C14.5017 2.89609 14.5017 5.22631 14.5017 5.22631C14.5017 5.22631 14.5017 7.55644 14.2116 8.67333C14.052 9.28953 13.5816 9.77477 12.9844 9.93953C11.902 10.2387 7.56139 10.2387 7.56139 10.2387C7.56139 10.2387 3.22079 10.2387 2.13834 9.93953C1.54108 9.77477 1.07071 9.28953 0.911088 8.67333C0.621094 7.55644 0.621094 5.22631 0.621094 5.22631C0.621094 5.22631 0.621094 2.89609 0.911088 1.77928C1.07071 1.16308 1.54108 0.677841 2.13834 0.513158C3.22079 0.213867 7.56139 0.213867 7.56139 0.213867C7.56139 0.213867 11.902 0.213867 12.9844 0.513158ZM6.26172 3.26465V7.62329L9.73187 5.44405L6.26172 3.26465Z" fill="white"/>
</svg>
