<svg width="38" height="37" viewBox="0 0 38 37" fill="none" xmlns="http://www.w3.org/2000/svg">
<path fill-rule="evenodd" clip-rule="evenodd" d="M25.7503 14.5452C23.6824 14.752 22.1315 12.7875 22.5451 10.7197C22.8553 9.37554 23.9926 8.44499 25.3367 8.3416C27.508 8.23821 29.0589 10.2027 28.5419 12.1672C28.2317 13.5113 27.0944 14.4418 25.7503 14.5452Z" stroke="#1364F6" stroke-opacity="0.5" stroke-width="2" stroke-miterlimit="10"/>
<path fill-rule="evenodd" clip-rule="evenodd" d="M36.3999 1.20728C36.5032 2.75819 36.8134 11.3399 27.9216 20.4385C26.991 21.3691 25.9571 22.1962 24.9231 22.8166C24.8197 22.92 24.8197 22.92 24.8197 23.1268C25.0265 24.5743 25.1299 27.5727 23.579 29.1236C20.5806 32.3288 16.5482 32.8458 15.2041 32.9492C14.9973 32.9492 14.7906 32.7424 14.8939 32.639C14.8939 32.639 15.9279 27.4693 16.0313 26.332C16.1347 26.2286 16.0313 26.1252 15.8245 26.1252C15.2041 26.1252 14.2736 26.2286 13.9634 26.1252C13.5498 25.9184 10.8616 23.2302 10.6548 22.8166C10.5514 22.5064 10.6548 21.5759 10.6548 20.9555C10.7582 20.8521 10.5514 20.8521 10.448 20.7487L4.34778 21.886C4.14099 21.886 4.0376 21.7826 4.0376 21.5759C4.14099 20.4385 4.65796 16.1994 7.96656 13.0976C9.62086 11.6501 12.5159 11.8568 13.9634 12.0636C14.0668 12.167 14.1702 12.0636 14.1702 12.0636C14.8939 10.9263 15.8245 9.78896 16.9618 8.85842C26.0605 0.793705 34.5388 1.00049 35.9863 1.00049C36.1931 1.00049 36.2965 1.10389 36.3999 1.20728Z" stroke="#4C70F0" stroke-width="2" stroke-miterlimit="10"/>
<path d="M8.37488 27.8076C9.719 29.1517 9.719 31.4264 8.37488 32.7705C7.03076 34.1146 4.23913 34.4248 2.48144 33.7011C1.96447 31.9434 2.06786 29.1517 3.41198 27.8076C4.7561 26.4635 7.03076 26.4635 8.37488 27.8076Z" stroke="#1364F6" stroke-opacity="0.5" stroke-width="2" stroke-miterlimit="10"/>
</svg>
