<svg width="15" height="15" viewBox="0 0 15 15" fill="none" xmlns="http://www.w3.org/2000/svg">
<path d="M14.3806 13.3944C14.3806 14.1602 13.7508 14.7825 12.9837 14.7825H1.89694C1.12984 14.7825 0.5 14.1602 0.5 13.3944V2.28992C0.5 1.52409 1.12984 0.901855 1.89694 0.901855H12.9837C13.7588 0.901855 14.3806 1.52409 14.3806 2.28992V13.3944Z" fill="white"/>
<path d="M5.01416 4.29191C5.01416 4.80246 4.63464 5.21728 4.0048 5.21728C3.41534 5.21728 3.03583 4.80246 3.03583 4.29191C3.03583 3.77338 3.43149 3.37451 4.0371 3.37451C4.63464 3.37451 5.00608 3.77338 5.01416 4.29191ZM3.08428 11.8863V5.94322H4.94956V11.8784H3.08428V11.8863Z" fill="#37364D"/>
<path d="M6.07189 7.84217C6.07189 7.10027 6.04766 6.48602 6.02344 5.95153H7.64647L7.7353 6.7732H7.7676C8.00984 6.38231 8.61545 5.81592 9.6248 5.81592C10.8522 5.81592 11.7727 6.62961 11.7727 8.37665V11.8867H9.90742V8.59204C9.90742 7.82621 9.64095 7.30768 8.96267 7.30768C8.44588 7.30768 8.13904 7.65869 8.00177 8.00171C7.95332 8.12137 7.93717 8.29688 7.93717 8.4644V11.8867H6.07189V7.84217Z" fill="#37364D"/>
</svg>
