<svg width="1110" height="357" viewBox="0 0 1110 357" fill="none" xmlns="http://www.w3.org/2000/svg">
<rect y="0.22168" width="1110" height="356" fill="#F7F9FD"/>
<mask id="mask0_57_5174" style="mask-type:alpha" maskUnits="userSpaceOnUse" x="5" y="0" width="1101" height="357">
<rect x="5" y="0.22168" width="1101" height="356" fill="#F7F9FD"/>
</mask>
<g mask="url(#mask0_57_5174)">
<path d="M1149.72 356.223C1121.22 238.15 1011 312.908 959 295.702C917.4 281.936 937 195.428 900.72 188.309C864.44 181.191 892.01 258.78 826.22 279.683C772 296.909 603 163.388 580.501 285.023C576.501 304.6 582.895 340.416 620.895 329.736C620.895 329.736 637.895 325.583 651.395 316.68C664.336 309.292 688.02 306.976 679.22 356.816" stroke="#BAC4F5" stroke-width="1.52694" stroke-dasharray="3.05 3.05"/>
<path d="M987.002 0.453613C1019.97 103.252 1150.26 285.925 1215.55 128.49C1220.75 112.865 1225.11 81.0406 1200.94 78.7385C1170.73 75.8609 1168.19 141.629 1202.37 173.741C1232.84 202.367 1266.84 225.533 1279.5 235.338" stroke="#BAC4F5" stroke-width="1.5" stroke-linecap="round" stroke-dasharray="3 3"/>
<path d="M-155.641 33.7996C180.758 11.075 163.919 209.025 133.591 213.243C111.44 216.323 112.777 188.496 127.757 184.039C142.738 179.583 160.065 180.788 160.065 180.788C199.1 182.134 220.42 201.243 220.42 220.147C217.676 267.272 68.8706 297.246 0.762996 297.246C-67.3446 297.246 -123.969 260.287 -123.969 232.374C-123.969 215.375 -103.493 200.337 -72.0981 191.175C-26.4568 184.993 14.7478 251.322 -12.1686 354.56" stroke="#BAC4F5" stroke-width="1.52694" stroke-dasharray="3.05 3.05"/>
<path d="M61.7564 91.15C67.0354 89.4289 84.8139 83.574 91.5859 80.5583C92.2565 80.2615 92.5638 79.3658 92.2907 78.6195C91.1404 75.4543 88.1481 67.5233 84.8058 62.3825C84.2995 61.5998 83.5047 61.1574 82.6715 61.2188C77.7398 61.4898 59.0494 62.8002 48.5063 68.949C47.5718 69.4861 47.3938 70.9696 48.1537 71.815C50.8656 74.8016 56.4732 81.6433 59.7055 90.0409C60.0586 90.9428 60.9155 91.4387 61.7564 91.15Z" fill="#E2E1F0"/>
<path d="M83.7861 62.9561C82.5465 64.3364 81.3468 65.7945 80.1889 67.2799C79.0301 68.7904 77.9139 70.3031 76.8795 71.9207C76.6106 72.3119 76.3622 72.7295 76.1138 73.147L75.7302 73.7854L75.3678 74.4248C75.1194 74.8423 74.9119 75.3123 74.684 75.7561C74.57 75.9779 74.4764 76.2261 74.3829 76.4742L74.2434 76.8212C74.2681 76.7213 74.3557 76.6497 74.4417 76.6286C74.4851 76.6054 74.5481 76.6337 74.5694 76.6347L74.4221 76.5771L74.1063 76.4609L73.495 76.2547L72.2513 75.8413C71.429 75.5744 70.6066 75.3075 69.7622 75.0648C66.4481 74.0972 63.0848 73.3293 59.6935 72.7621C56.3022 72.195 52.8829 71.8286 49.473 71.8163C52.8405 72.4581 56.1851 73.1493 59.5271 73.9162C59.9502 74.0123 60.352 74.1074 60.7742 74.2288L62.0221 74.5161C62.8462 74.7325 63.6923 74.9247 64.5155 75.1664L65.7618 75.5042L67.008 75.8419C67.832 76.0584 68.6552 76.3 69.4784 76.5417C70.3016 76.7833 71.1248 77.025 71.9479 77.2666L73.1712 77.6538L73.7825 77.86L74.0557 77.9742L74.203 78.0318C74.329 78.0884 74.4992 78.0966 74.6499 78.0533C74.9503 77.9919 75.215 77.7268 75.3323 77.404L75.4718 77.057C75.5645 76.8341 75.6138 76.6344 75.7277 76.4125C75.9336 75.9929 76.0977 75.5461 76.3248 75.1276L76.6446 74.4861L76.9849 73.8709C77.212 73.4524 77.4391 73.0338 77.6875 72.6163C78.6377 70.9694 79.6508 69.3508 80.6845 67.7584C81.6968 66.165 82.7304 64.5726 83.7861 62.9561Z" fill="#C0C3CC"/>
<path d="M85.9356 76.8716C84.8489 75.606 83.7393 74.39 82.5863 73.1971C81.4111 72.0285 80.2138 70.8842 78.8829 69.9105L78.305 71.2485C79.6453 71.9445 80.9362 72.8404 82.2254 73.7869C83.4916 74.7828 84.7357 75.8029 85.9356 76.8716Z" fill="#C0C3CC"/>
<path d="M63.822 83.0029C64.1027 81.6256 64.4456 80.3019 64.8524 78.9813C65.0447 78.3331 65.2797 77.6869 65.4933 77.0398C65.7282 76.3936 65.9828 75.799 66.2382 75.1791L65.063 74.5917C64.8903 75.2914 64.7184 75.9658 64.5883 76.6676C64.4582 77.3694 64.3281 78.0711 64.2414 78.7497C64.0443 80.1815 63.8905 81.5902 63.822 83.0029Z" fill="#C0C3CC"/>
<path d="M242.303 280.278C238.819 286.647 233.436 296.232 232.213 304.357C231.958 306.141 230.381 307.196 228.905 306.568C223.12 304.094 207.121 300.805 197.655 301.166C196.085 301.242 194.777 299.766 194.716 297.95C194.637 295.576 194.681 292.169 195.26 288.318C196.162 282.353 198.286 275.303 203.112 269.056C203.223 268.864 203.376 268.717 203.489 268.572C203.489 268.572 203.489 268.572 203.528 268.57C203.567 268.568 203.567 268.568 203.608 268.613C203.608 268.613 203.647 268.611 203.687 268.609C203.726 268.607 203.767 268.652 203.845 268.648C203.884 268.646 203.925 268.691 203.965 268.689C213.742 271.763 223.75 274.687 233.822 275.976C234.572 276.08 235.322 276.137 236.033 276.243C237.611 276.4 239.149 276.513 240.603 276.49C242.216 276.505 243.192 278.65 242.303 280.278Z" fill="#B1B3E9"/>
<path d="M202.652 271.83C203.203 274.181 203.829 276.436 204.533 278.687C205.237 280.938 206.056 283.09 206.99 285.143C207.924 287.196 209.012 289.149 210.325 290.811C211.639 292.473 213.176 293.752 214.85 294.418L214.455 294.343C214.612 294.336 214.885 294.276 215.119 294.218C215.392 294.158 215.625 294.054 215.896 293.948C216.44 293.735 216.983 293.523 217.565 293.262C218.689 292.788 219.771 292.223 220.893 291.656C223.097 290.525 225.301 289.393 227.542 288.213L234.19 284.724C236.433 283.59 238.635 282.412 240.92 281.37C238.931 283.051 236.819 284.551 234.745 286.049C232.671 287.548 230.516 288.957 228.399 290.317C226.242 291.679 224.084 292.995 221.842 294.175C220.722 294.789 219.601 295.355 218.438 295.877C217.857 296.138 217.276 296.399 216.654 296.616C216.343 296.724 216.032 296.832 215.682 296.942C215.332 297.052 215.019 297.114 214.548 297.136L214.352 297.146L214.152 297.062C211.999 296.186 210.172 294.456 208.77 292.518C207.367 290.534 206.311 288.346 205.448 286.056C204.624 283.765 203.995 281.417 203.521 279.015C203.05 276.66 202.733 274.25 202.652 271.83Z" fill="#9DA0D2"/>
<path d="M158.084 260.815C159.503 253.936 164.095 235.103 173.4 230.088C173.4 230.088 202.021 234.744 224.683 241.036C226.031 241.392 226.683 243.227 225.985 244.66C223.184 250.205 217.031 263.561 213.041 280.452C212.732 281.773 211.536 282.437 210.495 281.88C203.445 278.017 179.036 265.369 159.79 263.58C158.606 263.449 157.814 262.134 158.084 260.815Z" fill="#E2E1F0"/>
<path d="M171.7 233.271C173.051 236.049 174.44 238.779 175.868 241.507C177.295 244.188 178.8 246.866 180.377 249.354C181.167 250.621 181.994 251.84 182.857 252.964C183.72 254.088 184.661 255.161 185.672 255.998C185.914 256.173 186.157 256.394 186.436 256.521C186.557 256.608 186.678 256.696 186.797 256.737L187.157 256.906C187.278 256.993 187.396 256.987 187.515 257.028L187.713 257.065C187.791 257.062 187.871 257.104 187.911 257.103C188.187 257.136 188.503 257.167 188.778 257.154C189.368 257.172 189.954 257.051 190.54 256.93C191.124 256.762 191.747 256.592 192.368 256.329C193.571 255.852 194.81 255.279 196.048 254.661C197.286 254.042 198.523 253.423 199.802 252.849C202.318 251.656 204.875 250.507 207.479 249.59C212.686 247.708 218.071 246.47 223.483 246.024C218.227 247.628 213.096 249.413 208.059 251.659C207.439 251.922 206.82 252.232 206.201 252.541L204.343 253.423C203.105 254.042 201.868 254.66 200.671 255.324C198.197 256.608 195.766 257.984 193.088 259.044C192.428 259.309 191.728 259.529 190.985 259.658C190.243 259.834 189.499 259.916 188.751 259.905C188.357 259.878 187.963 259.85 187.607 259.774C187.528 259.778 187.409 259.737 187.33 259.741L187.013 259.663C186.814 259.579 186.577 259.544 186.416 259.458L185.856 259.159C185.657 259.075 185.495 258.943 185.333 258.811C184.972 258.595 184.688 258.329 184.364 258.065C183.189 257.003 182.203 255.745 181.335 254.482C180.428 253.22 179.635 251.86 178.882 250.498C177.375 247.774 176.101 244.945 174.865 242.068C173.708 239.234 172.588 236.304 171.7 233.271Z" fill="#C0C3CC"/>
<path d="M80.2921 283.421C78.0364 290.368 74.5818 300.871 74.8716 308.836C74.9233 310.65 73.5888 312.023 72.1454 311.782C66.1736 310.852 53.8591 299.65 44.8761 302.337C43.4309 302.768 41.9331 301.721 41.4849 299.972C39.6382 291.834 38.5027 282.522 35.2108 274.815C34.9295 274.142 33.8578 272.593 35.2163 272.799C42.7181 273.332 50.0761 274.704 57.4904 276.211C61.1408 276.998 64.876 277.818 68.5264 278.605C71.1863 279.22 75.3154 280.983 77.9503 280.355C79.509 279.857 80.7781 281.71 80.2921 283.421Z" fill="#B1B3E9"/>
<path d="M36.301 275.15C40.0414 276.98 43.6692 279.213 47.1838 281.512C50.6702 283.911 54.1284 286.412 57.4453 289.079L59.9117 291.071L60.5072 291.644L60.649 291.813C60.649 291.813 60.649 291.813 60.734 291.847C60.819 291.881 60.7059 291.947 61.3285 291.749C63.0553 291.32 64.8947 290.489 66.7059 289.759C70.3848 288.097 73.9781 286.066 77.7133 284.203C74.8014 287.513 71.464 290.318 67.9561 292.719C66.1172 293.886 64.3064 294.952 62.127 295.647C61.8156 295.746 61.7025 295.813 61.1079 295.911C60.6266 295.942 60.1734 295.873 59.7484 295.703C59.4934 295.601 59.3234 295.533 59.0966 295.331C58.8416 295.229 58.6998 295.06 58.6148 295.026L57.9911 294.554L55.5247 292.562C52.2078 289.894 49.0041 287.16 45.7436 284.292C42.398 281.389 39.2507 278.454 36.301 275.15Z" fill="#9DA0D2"/>
<path d="M863.169 258.687C861.528 263.778 858.991 271.477 859.186 277.395C859.24 278.715 858.255 279.711 857.166 279.554C852.791 278.871 843.719 270.655 837.112 272.602C836.046 272.918 834.936 272.149 834.635 270.87C834.473 270.064 834.312 269.258 834.15 268.452C833.861 266.992 833.573 265.533 833.249 264.059C832.879 262.335 832.474 260.598 832.034 258.846C831.629 257.247 831.189 255.634 830.654 254.076C830.469 253.492 830.236 252.936 830.003 252.379C829.794 251.879 829.013 250.778 830.008 250.852C832.453 251.042 834.887 251.412 837.309 251.824C839.73 252.236 842.175 252.704 844.585 253.158C844.656 253.186 844.738 253.172 844.808 253.2C846.282 253.511 847.732 253.767 849.206 254.078C850.575 254.347 851.944 254.616 853.312 254.885C854.494 255.126 855.675 255.367 856.857 255.607C857.746 255.777 858.67 255.962 859.559 256.132C860.086 256.203 860.636 256.33 861.174 256.36C861.256 256.346 861.361 256.389 861.443 256.375C862.626 256.06 863.571 257.411 863.169 258.687Z" fill="#B1B3E9"/>
<path opacity="0.5" d="M857.131 279.541C858.219 279.698 859.205 278.701 859.15 277.382C859.119 275.979 859.205 274.437 859.455 272.869C857.981 272.557 856.507 272.246 855.033 271.935C851.968 271.312 848.927 270.745 845.826 270.525C845.287 270.495 845.707 271.08 845.823 271.358C846.242 272.36 846.602 273.431 846.88 274.515C850.924 276.503 854.745 279.143 857.131 279.541Z" fill="#9DA0D2"/>
<path d="M830.805 252.614C833.535 254.028 836.148 255.72 838.714 257.438C841.268 259.199 843.752 261.07 846.213 263.024L848.018 264.531L848.463 264.894L848.592 264.992C848.627 265.006 848.627 265.006 848.662 265.02C848.803 265.076 848.721 265.089 849.177 264.994C850.476 264.681 851.822 264.063 853.167 263.444C855.834 262.152 858.477 260.665 861.191 259.207C860.115 260.395 858.923 261.444 857.731 262.494C856.515 263.487 855.264 264.467 853.942 265.28C852.609 266.134 851.264 266.891 849.684 267.37C849.474 267.424 849.333 267.507 848.97 267.547C848.654 267.559 848.315 267.516 848.034 267.404C847.893 267.348 847.753 267.292 847.589 267.18C847.518 267.152 847.46 267.082 847.389 267.054L847.261 266.956L846.815 266.593L844.999 265.128C842.585 263.146 840.17 261.164 837.791 259.058C835.377 257.076 833.044 254.942 830.805 252.614Z" fill="#9DA0D2"/>
<path d="M866.42 277.507C865.488 280.379 864.06 284.721 864.179 288.013C864.201 288.763 863.649 289.331 863.052 289.231C860.584 288.847 855.493 284.216 851.78 285.327C851.182 285.505 850.563 285.072 850.378 284.349C849.614 280.985 849.145 277.136 847.784 273.95C847.668 273.671 847.225 273.031 847.786 273.116C850.888 273.336 853.929 273.904 856.994 274.527C858.503 274.852 860.047 275.191 861.556 275.516C862.656 275.771 864.363 276.499 865.452 276.24C866.096 276.034 866.621 276.8 866.42 277.507Z" fill="#B1B3E9"/>
<path d="M848.235 274.088C849.781 274.844 851.281 275.767 852.734 276.717C854.175 277.709 855.605 278.743 856.976 279.846L857.995 280.669L858.241 280.906L858.3 280.976C858.3 280.976 858.3 280.976 858.335 280.99C858.37 281.004 858.324 281.031 858.581 280.949C859.295 280.772 860.055 280.429 860.804 280.127C862.325 279.44 863.81 278.6 865.354 277.83C864.15 279.198 862.771 280.358 861.321 281.35C860.561 281.833 859.812 282.273 858.911 282.561C858.782 282.602 858.736 282.629 858.49 282.67C858.291 282.683 858.103 282.654 857.928 282.584C857.822 282.542 857.752 282.514 857.658 282.43C857.553 282.388 857.494 282.318 857.459 282.304L857.201 282.109L856.182 281.285C854.811 280.183 853.486 279.052 852.138 277.867C850.755 276.667 849.454 275.453 848.235 274.088Z" fill="#9DA0D2"/>
<path d="M923.046 257.924C921.964 253.607 924.434 246.767 922.316 241.766C921.993 240.976 922.549 240.08 923.292 240.189C924.763 240.446 928.407 241.834 931.503 243.43C936.493 246.035 944.494 252.062 947.834 252.424C948.313 252.471 948.74 252.83 948.966 253.364C950.097 256.13 944.145 268.5 944.035 269.519C943.943 270.402 943.192 270.981 942.467 270.735L924.748 259.854C923.907 259.587 923.269 258.851 923.046 257.924Z" fill="#E2E1F0"/>
<path d="M924.947 245.124C925.917 246.258 926.887 247.391 927.823 248.505L930.649 251.904C931.586 253.017 932.506 254.17 933.459 255.244C934.413 256.318 935.366 257.393 936.354 258.291L935.76 258.027C936.504 258.038 937.448 257.875 938.376 257.652C939.304 257.43 940.248 257.168 941.193 256.907C942.137 256.646 943.115 256.404 944.06 256.143C945.037 255.902 946.015 255.661 947.025 255.538C946.226 256.331 945.346 256.928 944.465 257.524C943.585 258.12 942.672 258.598 941.727 259.056C940.781 259.513 939.819 259.912 938.825 260.192C937.797 260.453 936.77 260.713 935.53 260.597L935.166 260.572L934.936 260.333L934.13 259.496L933.374 258.641C932.881 258.044 932.421 257.468 931.978 256.853C931.074 255.662 930.205 254.392 929.385 253.103C928.565 251.815 927.778 250.547 927.025 249.2C926.338 247.894 925.601 246.508 924.947 245.124Z" fill="#C0C3CC"/>
<path d="M987.007 113.563C986.301 113.43 985.933 112.484 986.329 111.734C988.657 107.566 994.442 96.9164 998.171 95.2414C998.696 95.0168 1012.96 96.46 1022.02 104.835C1022.57 105.341 1022.65 106.267 1022.23 106.919C1020.6 109.457 1016.74 115.726 1014.68 121.045C1014.19 122.331 1012.92 122.957 1011.78 122.48C1006.58 120.27 992.874 114.611 987.007 113.563Z" fill="#E2E1F0"/>
<path opacity="0.5" d="M1022.22 106.955C1022.65 106.303 1022.54 105.378 1022.02 104.871C1019.93 102.943 1008.75 97.8955 1006.35 96.6474C1003.91 101.851 1001.82 105.275 1000.84 107.982C1000.48 108.996 1000.89 110.174 1001.77 110.531C1003.22 111.159 1013.96 117.16 1016.03 117.958C1018.15 113.501 1020.92 108.98 1022.22 106.955Z" fill="#C0C3CC"/>
<path d="M997.458 96.6714C997.864 97.9151 998.269 99.1256 998.757 100.332C999.217 101.507 999.705 102.68 1000.25 103.784C1000.79 104.889 1001.38 105.957 1002.06 106.889C1002.41 107.37 1002.76 107.819 1003.14 108.2C1003.52 108.58 1003.92 108.96 1004.35 109.238L1004.07 109.119C1004.18 109.114 1004.29 109.141 1004.41 109.136C1004.52 109.131 1004.69 109.123 1004.83 109.116C1005.11 109.103 1005.41 109.088 1005.72 109.04C1006.03 109.025 1006.33 108.944 1006.64 108.929C1006.95 108.881 1007.26 108.833 1007.56 108.785C1008.79 108.593 1010.02 108.368 1011.24 108.143C1012.47 107.918 1013.72 107.692 1014.95 107.5C1016.21 107.307 1017.43 107.115 1018.72 106.987C1017.53 107.576 1016.34 108.032 1015.15 108.488C1013.96 108.944 1012.74 109.335 1011.52 109.692C1010.3 110.05 1009.07 110.375 1007.82 110.634C1007.52 110.716 1007.21 110.763 1006.87 110.813C1006.57 110.861 1006.23 110.943 1005.93 110.958C1005.59 111.007 1005.28 111.055 1004.95 111.071C1004.78 111.079 1004.61 111.088 1004.42 111.097C1004.22 111.073 1004.02 111.049 1003.82 111.026L1003.68 110.999L1003.54 110.906C1002.48 110.126 1001.6 109.104 1000.89 108.008C1000.18 106.879 999.609 105.676 999.147 104.435C998.685 103.194 998.334 101.915 998.037 100.599C997.742 99.3171 997.53 97.9976 997.458 96.6714Z" fill="#C0C3CC"/>
<path d="M1042.92 128.406C1043.4 125.058 1044.98 118.163 1050.47 113.678C1050.47 113.678 1061.19 119.887 1068.71 121.824C1069.59 122.048 1069.91 123.33 1069.26 124.093C1066.76 127.072 1062.02 133.052 1060.6 137.277C1060.29 138.223 1059.32 138.569 1058.61 138.037C1055.7 135.914 1049.36 131.659 1044.2 130.574C1043.35 130.382 1042.79 129.411 1042.92 128.406Z" fill="#B1B3E9"/>
<path opacity="0.5" d="M1068.71 121.79C1061.19 119.887 1050.46 113.645 1050.46 113.645C1047.71 115.905 1045.96 118.749 1044.79 121.466C1051.68 123.865 1061.42 125.996 1064.87 126.73C1065.68 126.89 1066.54 126.65 1067.2 126.053C1067.88 125.455 1068.72 124.65 1069.23 124.027C1069.91 123.297 1069.58 122.015 1068.71 121.79Z" fill="#9DA0D2"/>
<path d="M1049.68 115.321C1049.78 116.579 1049.91 117.836 1050.09 119.058C1050.27 120.279 1050.5 121.464 1050.82 122.612C1050.98 123.17 1051.17 123.726 1051.38 124.281C1051.6 124.802 1051.81 125.324 1052.11 125.775C1052.37 126.261 1052.67 126.679 1052.99 127.062C1053.31 127.446 1053.69 127.76 1054.09 128.04L1053.8 127.92C1053.86 127.918 1053.89 127.916 1053.95 127.947L1054.14 127.938C1054.25 127.932 1054.42 127.924 1054.56 127.917C1054.84 127.871 1055.15 127.823 1055.45 127.775C1056.07 127.646 1056.65 127.518 1057.26 127.389C1058.49 127.097 1059.71 126.772 1060.96 126.446C1062.18 126.121 1063.43 125.795 1064.69 125.503C1065.94 125.21 1067.19 124.917 1068.44 124.69C1067.29 125.377 1066.1 125.966 1064.94 126.521C1063.76 127.076 1062.57 127.599 1061.35 128.056C1060.13 128.514 1058.91 128.938 1057.66 129.297C1057.02 129.494 1056.41 129.623 1055.74 129.755C1055.41 129.838 1055.08 129.887 1054.74 129.903C1054.57 129.911 1054.4 129.919 1054.21 129.929L1053.93 129.909C1053.81 129.881 1053.7 129.887 1053.59 129.859L1053.45 129.832L1053.3 129.74C1052.79 129.365 1052.32 128.922 1051.91 128.41C1051.5 127.898 1051.18 127.316 1050.88 126.732C1050.3 125.529 1049.92 124.251 1049.71 122.998C1049.5 121.712 1049.4 120.42 1049.42 119.123C1049.35 117.83 1049.44 116.562 1049.68 115.321Z" fill="#9DA0D2"/>
<path d="M1046.09 115.533C1039.15 113.269 1015.76 105.568 1006.86 101.602C1005.98 101.211 1005.57 100.033 1005.93 99.0512C1007.44 94.888 1011.38 84.4561 1015.78 77.6943C1016.44 76.6647 1017.49 76.0828 1018.58 76.1636C1025.07 76.5201 1049.65 78.2436 1063.52 86.3313C1064.75 87.0378 1064.98 88.9891 1063.99 90.1011C1060.42 94.0295 1053.04 103.029 1048.79 114.074C1048.33 115.261 1047.2 115.913 1046.09 115.533Z" fill="#E2E1F0"/>
<path d="M1017.12 78.4487C1018.75 80.2644 1020.33 82.1823 1021.85 84.1361C1023.37 86.123 1024.84 88.1127 1026.2 90.2404C1026.56 90.755 1026.88 91.3042 1027.21 91.8534L1027.71 92.6931L1028.19 93.5341C1028.52 94.0833 1028.79 94.7016 1029.09 95.2853C1029.24 95.5771 1029.36 95.9035 1029.49 96.2299L1029.67 96.6863C1029.64 96.5549 1029.52 96.4608 1029.41 96.433C1029.35 96.4025 1029.27 96.4397 1029.24 96.441L1029.44 96.3653L1029.85 96.2124L1030.65 95.9412L1032.29 95.3974C1033.37 95.0463 1034.45 94.6953 1035.56 94.3761C1039.92 93.1033 1044.35 92.0933 1048.81 91.3473C1053.27 90.6013 1057.77 90.1194 1062.25 90.1032C1057.82 90.9474 1053.42 91.8566 1049.03 92.8653C1048.47 92.9917 1047.94 93.1168 1047.39 93.2764L1045.75 93.6543C1044.66 93.939 1043.55 94.1919 1042.47 94.5097L1040.83 94.954L1039.19 95.3983C1038.1 95.6829 1037.02 96.0008 1035.94 96.3187C1034.85 96.6365 1033.77 96.9544 1032.69 97.2722L1031.08 97.7815L1030.28 98.0527L1029.92 98.2029L1029.72 98.2787C1029.56 98.3531 1029.33 98.3639 1029.14 98.3069C1028.74 98.2262 1028.39 97.8774 1028.24 97.4529L1028.05 96.9965C1027.93 96.7033 1027.87 96.4406 1027.72 96.1487C1027.45 95.5969 1027.23 95.0091 1026.93 94.4586L1026.51 93.6148L1026.06 92.8056C1025.77 92.2551 1025.47 91.7046 1025.14 91.1554C1023.89 88.9891 1022.56 86.8601 1021.2 84.7655C1019.87 82.6696 1018.51 80.5751 1017.12 78.4487Z" fill="#C0C3CC"/>
<path d="M1014.29 96.7572C1015.72 95.0926 1017.18 93.4931 1018.7 91.9241C1020.24 90.387 1021.82 88.8818 1023.57 87.6011L1024.33 89.361C1022.56 90.2765 1020.87 91.4549 1019.17 92.6998C1017.5 94.0098 1015.87 95.3516 1014.29 96.7572Z" fill="#C0C3CC"/>
<path d="M1043.38 104.819C1043.01 103.007 1042.56 101.266 1042.02 99.5287C1041.77 98.6761 1041.46 97.8262 1041.18 96.9749C1040.87 96.125 1040.53 95.3428 1040.2 94.5274L1041.74 93.7547C1041.97 94.6751 1042.2 95.5623 1042.37 96.4854C1042.54 97.4084 1042.71 98.3315 1042.83 99.2241C1043.08 101.107 1043.29 102.96 1043.38 104.819Z" fill="#C0C3CC"/>
</g>
</svg>
