<svg width="114" height="19" viewBox="0 0 114 19" fill="none" xmlns="http://www.w3.org/2000/svg">
<path fill-rule="evenodd" clip-rule="evenodd" d="M28.546 12.016C28.546 12.2436 28.546 12.5166 28.5005 12.8806H18.5812C18.7632 13.7906 19.2182 14.5641 19.9462 15.1101C20.6743 15.6561 21.5843 15.9291 22.6763 15.9291C24.0869 15.9291 25.2244 15.4741 26.0889 14.5641L27.6815 16.3842C27.1354 17.0667 26.4074 17.5672 25.5429 17.9312C24.6784 18.2952 23.6773 18.4317 22.5853 18.4317C21.1748 18.4317 19.9917 18.1587 18.8997 17.6127C17.8532 17.0667 17.0342 16.2932 16.4426 15.2921C15.8511 14.2911 15.5781 13.1991 15.5781 11.925C15.5781 10.6965 15.8511 9.60448 16.3971 8.60346C16.9432 7.60243 17.7167 6.82891 18.7177 6.28289C19.7187 5.73688 20.8563 5.46387 22.0848 5.46387C23.3133 5.46387 24.4054 5.73688 25.4064 6.28289C26.3619 6.82891 27.1354 7.60243 27.6815 8.55795C28.273 9.60448 28.546 10.742 28.546 12.016ZM22.1758 7.87543C21.2203 7.87543 20.4467 8.14844 19.7642 8.69446C19.1272 9.24047 18.7177 10.014 18.5812 10.924H25.7704C25.6339 10.014 25.2699 9.28597 24.5874 8.69446C23.9503 8.14844 23.1313 7.87543 22.1758 7.87543Z" fill="white"/>
<path fill-rule="evenodd" clip-rule="evenodd" d="M49.796 12.016C49.796 12.2436 49.796 12.5166 49.7505 12.8806H39.8312C40.0132 13.7906 40.4682 14.5641 41.1962 15.1101C41.9243 15.6561 42.8343 15.9291 43.9263 15.9291C45.3369 15.9291 46.4744 15.4741 47.3389 14.5641L48.9315 16.3842C48.3854 17.0667 47.6574 17.5672 46.7929 17.9312C45.9284 18.2952 44.9274 18.4317 43.8353 18.4317C42.4248 18.4317 41.2418 18.1587 40.1497 17.6127C39.1032 17.0667 38.2842 16.2932 37.6927 15.2921C37.1011 14.2911 36.8281 13.1991 36.8281 11.925C36.8281 10.6965 37.1011 9.60448 37.6472 8.60346C38.1932 7.60243 38.9667 6.82891 39.9677 6.28289C40.9687 5.73688 42.0608 5.46387 43.3348 5.46387C44.5633 5.46387 45.6554 5.73688 46.6564 6.28289C47.6119 6.82891 48.3854 7.60243 48.9315 8.55795C49.523 9.60448 49.796 10.742 49.796 12.016ZM43.4258 7.87543C42.4703 7.87543 41.6968 8.14844 41.0142 8.69446C40.3772 9.24047 39.9677 10.014 39.8312 10.924H47.0204C46.8839 10.014 46.5199 9.28597 45.8829 8.69446C45.2004 8.14844 44.3813 7.87543 43.4258 7.87543Z" fill="white"/>
<path fill-rule="evenodd" clip-rule="evenodd" d="M54.0711 7.51279C54.9356 6.19326 56.4371 5.51074 58.5757 5.51074V8.24082C58.3027 8.24082 58.0752 8.24082 57.8932 8.24082C56.7557 8.24082 55.8456 8.55932 55.2086 9.24184C54.5716 9.92436 54.2531 10.8799 54.2531 12.1539V18.2966H51.25V5.64725H54.0711V7.51279Z" fill="white"/>
<path fill-rule="evenodd" clip-rule="evenodd" d="M70.5868 3.73403C70.0408 3.73403 69.5858 3.55203 69.2218 3.18802C68.8578 2.82401 68.6758 2.369 68.6758 1.86848C68.6758 1.32247 68.8578 0.912953 69.2218 0.548943C69.5858 0.184933 70.0408 0.00292969 70.5868 0.00292969C71.1329 0.00292969 71.5879 0.184937 71.9519 0.503446C72.3159 0.821955 72.4979 1.27697 72.4979 1.77748C72.4979 2.3235 72.3159 2.77851 71.9519 3.14252C71.5879 3.55203 71.1329 3.73403 70.5868 3.73403Z" fill="white"/>
<path fill-rule="evenodd" clip-rule="evenodd" d="M69.0898 5.64355H72.0474V18.2929H69.0898V5.64355Z" fill="white"/>
<path fill-rule="evenodd" clip-rule="evenodd" d="M97.7529 12.0151C97.7529 12.2426 97.7529 12.5156 97.7074 12.8796H87.7882C87.9702 13.7896 88.4252 14.5631 89.1532 15.1091C89.8812 15.6552 90.7912 15.9282 91.8833 15.9282C93.2938 15.9282 94.4313 15.4732 95.2959 14.5631L96.8884 16.3832C96.3424 17.0657 95.6144 17.5662 94.7499 17.9302C93.8853 18.2942 92.8843 18.4307 91.7923 18.4307C90.3817 18.4307 89.1987 18.1577 88.1067 17.6117C87.0602 17.0657 86.2411 16.2922 85.6496 15.2912C85.0581 14.2901 84.7851 13.1981 84.7851 11.9241C84.7851 10.6955 85.0581 9.60351 85.6041 8.60248C86.1501 7.60145 86.9237 6.82793 87.9247 6.28191C88.9257 5.7359 90.0177 5.46289 91.2918 5.46289C92.5203 5.46289 93.6123 5.7359 94.6133 6.28191C95.5689 6.82793 96.3424 7.60145 96.8884 8.55698C97.4799 9.6035 97.7529 10.741 97.7529 12.0151ZM91.3373 7.87446C90.3817 7.87446 89.6082 8.14747 88.9257 8.69348C88.2887 9.2395 87.8792 10.013 87.7427 10.923H94.9319C94.7954 10.013 94.4313 9.285 93.7943 8.69348C93.1118 8.14747 92.2928 7.87446 91.3373 7.87446Z" fill="white"/>
<path fill-rule="evenodd" clip-rule="evenodd" d="M102.166 7.50889C103.031 6.18935 104.532 5.50684 106.671 5.50684V8.32791C106.398 8.28241 106.17 8.23691 105.988 8.23691C104.851 8.23691 103.941 8.55542 103.304 9.23794C102.667 9.92045 102.348 10.876 102.348 12.15V18.2927H99.3906V5.64334H102.212V7.50889H102.166Z" fill="white"/>
<path fill-rule="evenodd" clip-rule="evenodd" d="M37.6478 2.96088C37.6023 2.96088 34.6902 2.96088 34.5992 2.96088C33.5072 3.05189 32.9157 3.6889 32.9157 5.00844V5.78196H36.3283V8.14803H33.0522V18.3403H30.0946V13.8357V8.10252V5.73646V5.41795V4.96294C30.0946 3.5979 30.5041 2.55137 31.2776 1.73235C32.0512 0.95883 33.1887 0.549316 34.5992 0.549316C34.6447 0.549316 37.6023 0.549316 37.6478 0.549316V2.96088Z" fill="white"/>
<path fill-rule="evenodd" clip-rule="evenodd" d="M10.8007 12.9708C11.0282 12.8798 11.2557 12.8798 11.4377 12.7888C12.4843 12.3338 13.3033 11.6513 13.8948 10.7413C14.4408 9.83125 14.7593 8.78472 14.7593 7.60168C14.7593 6.37315 14.4863 5.32662 13.8948 4.4621C13.3033 3.59758 12.5298 2.91506 11.4377 2.41455C10.3912 1.95953 9.11716 1.68652 7.66112 1.68652H0.835938V18.249H3.93002V4.2801H7.52462C8.88965 4.2801 9.89069 4.5531 10.5732 5.14462C11.2557 5.69063 11.6197 6.50965 11.6197 7.60168C11.6197 8.64821 11.2557 9.46724 10.5732 10.0588C9.89069 10.6048 8.84415 10.9233 7.52462 10.9233H5.43156L11.4377 18.2945H15.1233L10.8007 12.9708Z" fill="white"/>
<path fill-rule="evenodd" clip-rule="evenodd" d="M62.9904 7.51279C63.8549 6.19326 65.3565 5.51074 67.495 5.51074V8.24082C67.222 8.24082 66.9945 8.24082 66.8125 8.24082C65.675 8.24082 64.765 8.55932 64.1279 9.24184C63.4909 9.92436 63.1724 10.8799 63.1724 12.1539V18.2966H60.2148V5.64725H63.0359V7.51279H62.9904Z" fill="white"/>
<path fill-rule="evenodd" clip-rule="evenodd" d="M107.811 1.04983H106.719V0.549316H109.495V1.04983H108.403V3.82541H107.811V1.04983Z" fill="white"/>
<path fill-rule="evenodd" clip-rule="evenodd" d="M113.226 3.8259L113.18 1.64184L112.134 3.46189H111.861L110.769 1.68734V3.8259H110.223V0.549805H110.723L111.997 2.73387L113.271 0.549805H113.772V3.8259H113.226Z" fill="white"/>
<path fill-rule="evenodd" clip-rule="evenodd" d="M84.557 15.9268V18.2929H73.6367V16.4273L80.5984 8.00962H73.7732V5.64355H84.375V7.5091L77.4133 15.9268H84.557Z" fill="white"/>
</svg>
