<svg width="40" height="42" viewBox="0 0 40 42" fill="none" xmlns="http://www.w3.org/2000/svg">
<path d="M20.0001 34.833V40.6663" stroke="#A5B7F7" stroke-width="2" stroke-linecap="round" stroke-linejoin="round"/>
<path d="M32.544 21H38.9767" stroke="#A5B7F7" stroke-width="2" stroke-linecap="round" stroke-linejoin="round"/>
<path d="M1.02364 21H6.65229" stroke="#A5B7F7" stroke-width="2" stroke-linecap="round" stroke-linejoin="round"/>
<path d="M20.0001 7.16634V1.33301" stroke="#A5B7F7" stroke-width="2" stroke-linecap="round" stroke-linejoin="round"/>
<path d="M20.0002 37.6663C28.882 37.6663 36.0821 30.2044 36.0821 20.9997C36.0821 11.7949 28.882 4.33301 20.0002 4.33301C11.1185 4.33301 3.91838 11.7949 3.91838 20.9997C3.91838 30.2044 11.1185 37.6663 20.0002 37.6663Z" stroke="#4C70F0" stroke-width="2" stroke-linecap="round" stroke-linejoin="round"/>
<path d="M20 21.3333C21.421 21.3333 22.5731 20.1394 22.5731 18.6667C22.5731 17.1939 21.421 16 20 16C18.5789 16 17.4269 17.1939 17.4269 18.6667C17.4269 20.1394 18.5789 21.3333 20 21.3333Z" stroke="#4C70F0" stroke-width="2" stroke-linejoin="round"/>
<path d="M23.8597 25.3335C23.8597 23.1244 22.1317 21.3335 20.0001 21.3335C17.8685 21.3335 16.1404 23.1244 16.1404 25.3335" stroke="#4C70F0" stroke-width="2" stroke-linecap="round" stroke-linejoin="round"/>
</svg>
