<svg width="40" height="40" viewBox="0 0 40 40" fill="none" xmlns="http://www.w3.org/2000/svg">
<path d="M30.6669 3.33301H8.00018C6.89561 3.33301 6.00018 4.22844 6.00018 5.33301V34.6663C6.00018 35.7709 6.89561 36.6663 8.00018 36.6663H30.6668C31.7714 36.6663 32.6668 35.7709 32.6668 34.6663V5.33301C32.6668 4.22844 31.7714 3.33301 30.6669 3.33301Z" stroke="#4C70F0" stroke-width="2" stroke-linecap="round" stroke-linejoin="round"/>
<path d="M14.1668 24.999L25.8335 24.999" stroke="#1364F6" stroke-opacity="0.5" stroke-width="2" stroke-linecap="round" stroke-linejoin="round"/>
<path d="M14.1668 29.999H20.0001" stroke="#1364F6" stroke-opacity="0.5" stroke-width="2" stroke-linecap="round" stroke-linejoin="round"/>
<path d="M17.9245 11.6085L19.0051 9.29524C19.2213 8.90029 19.7616 8.90029 19.9777 9.29524L21.0584 11.6085L23.5439 12.0035C23.9761 12.0599 24.1382 12.6241 23.8681 12.9627L22.085 14.7682L22.5173 17.3071C22.5713 17.7585 22.139 18.097 21.7068 17.9278L19.4914 16.7429L17.2761 17.9278C16.8979 18.1535 16.4116 17.8149 16.4656 17.3071L16.8979 14.7682L15.1688 12.9627C14.8446 12.6241 15.0067 12.0599 15.493 12.0035L17.9245 11.6085Z" stroke="#4C70F0" stroke-width="2" stroke-miterlimit="10"/>
</svg>
