<svg width="114" height="19" viewBox="0 0 114 19" fill="none" xmlns="http://www.w3.org/2000/svg">
<path fill-rule="evenodd" clip-rule="evenodd" d="M28.046 12.5844C28.046 12.8119 28.046 13.0849 28.0005 13.4489H18.0812C18.2632 14.359 18.7182 15.1325 19.4462 15.6785C20.1743 16.2245 21.0843 16.4975 22.1763 16.4975C23.5869 16.4975 24.7244 16.0425 25.5889 15.1325L27.1815 16.9525C26.6354 17.635 25.9074 18.1356 25.0429 18.4996C24.1784 18.8636 23.1773 19.0001 22.0853 19.0001C20.6748 19.0001 19.4917 18.7271 18.3997 18.1811C17.3532 17.635 16.5342 16.8615 15.9426 15.8605C15.3511 14.8595 15.0781 13.7674 15.0781 12.4934C15.0781 11.2649 15.3511 10.1728 15.8971 9.17182C16.4432 8.17079 17.2167 7.39726 18.2177 6.85125C19.2187 6.30524 20.3563 6.03223 21.5848 6.03223C22.8133 6.03223 23.9054 6.30524 24.9064 6.85125C25.8619 7.39726 26.6354 8.17079 27.1815 9.12631C27.773 10.1728 28.046 11.3104 28.046 12.5844ZM21.6758 8.44379C20.7203 8.44379 19.9467 8.7168 19.2642 9.26282C18.6272 9.80883 18.2177 10.5823 18.0812 11.4924H25.2704C25.1339 10.5823 24.7699 9.85433 24.0874 9.26282C23.4503 8.7168 22.6313 8.44379 21.6758 8.44379Z" fill="#22283B"/>
<path fill-rule="evenodd" clip-rule="evenodd" d="M49.296 12.5844C49.296 12.8119 49.296 13.0849 49.2505 13.4489H39.3312C39.5132 14.359 39.9682 15.1325 40.6962 15.6785C41.4243 16.2245 42.3343 16.4975 43.4263 16.4975C44.8369 16.4975 45.9744 16.0425 46.8389 15.1325L48.4315 16.9525C47.8854 17.635 47.1574 18.1356 46.2929 18.4996C45.4284 18.8636 44.4274 19.0001 43.3353 19.0001C41.9248 19.0001 40.7418 18.7271 39.6497 18.1811C38.6032 17.635 37.7842 16.8615 37.1927 15.8605C36.6011 14.8595 36.3281 13.7674 36.3281 12.4934C36.3281 11.2649 36.6011 10.1728 37.1472 9.17182C37.6932 8.17079 38.4667 7.39726 39.4677 6.85125C40.4687 6.30524 41.5608 6.03223 42.8348 6.03223C44.0633 6.03223 45.1554 6.30524 46.1564 6.85125C47.1119 7.39726 47.8854 8.17079 48.4315 9.12631C49.023 10.1728 49.296 11.3104 49.296 12.5844ZM42.9258 8.44379C41.9703 8.44379 41.1968 8.7168 40.5142 9.26282C39.8772 9.80883 39.4677 10.5823 39.3312 11.4924H46.5204C46.3839 10.5823 46.0199 9.85433 45.3829 9.26282C44.7004 8.7168 43.8813 8.44379 42.9258 8.44379Z" fill="#22283B"/>
<path fill-rule="evenodd" clip-rule="evenodd" d="M53.5711 8.07822C54.4356 6.75869 55.9371 6.07617 58.0757 6.07617V8.80625C57.8027 8.80625 57.5752 8.80625 57.3932 8.80625C56.2557 8.80625 55.3456 9.12475 54.7086 9.80727C54.0716 10.4898 53.7531 11.4453 53.7531 12.7193V18.862H50.75V6.21268H53.5711V8.07822Z" fill="#22283B"/>
<path fill-rule="evenodd" clip-rule="evenodd" d="M70.0868 4.30336C69.5408 4.30336 69.0858 4.12136 68.7218 3.75735C68.3578 3.39334 68.1758 2.93833 68.1758 2.43782C68.1758 1.8918 68.3578 1.48229 68.7218 1.11828C69.0858 0.754269 69.5408 0.572266 70.0868 0.572266C70.6329 0.572266 71.0879 0.754273 71.4519 1.07278C71.8159 1.39129 71.9979 1.8463 71.9979 2.34682C71.9979 2.89283 71.8159 3.34784 71.4519 3.71185C71.0879 4.12137 70.6329 4.30336 70.0868 4.30336Z" fill="#22283B"/>
<path fill-rule="evenodd" clip-rule="evenodd" d="M68.5898 6.21289H71.5474V18.8622H68.5898V6.21289Z" fill="#22283B"/>
<path fill-rule="evenodd" clip-rule="evenodd" d="M97.2529 12.5844C97.2529 12.8119 97.2529 13.0849 97.2074 13.4489H87.2882C87.4702 14.359 87.9252 15.1325 88.6532 15.6785C89.3812 16.2245 90.2912 16.4975 91.3833 16.4975C92.7938 16.4975 93.9313 16.0425 94.7959 15.1325L96.3884 16.9525C95.8424 17.635 95.1144 18.1356 94.2499 18.4996C93.3853 18.8636 92.3843 19.0001 91.2923 19.0001C89.8817 19.0001 88.6987 18.7271 87.6067 18.1811C86.5602 17.635 85.7411 16.8615 85.1496 15.8605C84.5581 14.8595 84.2851 13.7674 84.2851 12.4934C84.2851 11.2649 84.5581 10.1728 85.1041 9.17182C85.6501 8.17079 86.4237 7.39726 87.4247 6.85125C88.4257 6.30524 89.5177 6.03223 90.7918 6.03223C92.0203 6.03223 93.1123 6.30524 94.1133 6.85125C95.0689 7.39726 95.8424 8.17079 96.3884 9.12631C96.9799 10.1728 97.2529 11.3104 97.2529 12.5844ZM90.8373 8.44379C89.8817 8.44379 89.1082 8.7168 88.4257 9.26282C87.7887 9.80883 87.3792 10.5823 87.2427 11.4924H94.4319C94.2954 10.5823 93.9313 9.85433 93.2943 9.26282C92.6118 8.7168 91.7928 8.44379 90.8373 8.44379Z" fill="#22283B"/>
<path fill-rule="evenodd" clip-rule="evenodd" d="M101.666 8.07822C102.531 6.75869 104.032 6.07617 106.171 6.07617V8.89725C105.898 8.85175 105.67 8.80625 105.488 8.80625C104.351 8.80625 103.441 9.12475 102.804 9.80727C102.167 10.4898 101.848 11.4453 101.848 12.7193V18.862H98.8906V6.21268H101.712V8.07822H101.666Z" fill="#22283B"/>
<path fill-rule="evenodd" clip-rule="evenodd" d="M37.1478 3.52973C37.1023 3.52973 34.1902 3.52973 34.0992 3.52973C33.0072 3.62073 32.4157 4.25775 32.4157 5.57729V6.3508H35.8283V8.71687H32.5522V18.9091H29.5946V14.4045V8.67137V6.30531V5.9868V5.53179C29.5946 4.16675 30.0041 3.12022 30.7776 2.3012C31.5512 1.52768 32.6887 1.11816 34.0992 1.11816C34.1447 1.11816 37.1023 1.11816 37.1478 1.11816V3.52973Z" fill="#22283B"/>
<path fill-rule="evenodd" clip-rule="evenodd" d="M10.3007 13.5402C10.5282 13.4492 10.7557 13.4492 10.9377 13.3582C11.9843 12.9032 12.8033 12.2206 13.3948 11.3106C13.9408 10.4006 14.2593 9.35405 14.2593 8.17102C14.2593 6.94249 13.9863 5.89596 13.3948 5.03144C12.8033 4.16691 12.0298 3.4844 10.9377 2.98388C9.8912 2.52887 8.61716 2.25586 7.16112 2.25586H0.335938V18.8183H3.43002V4.84944H7.02462C8.38965 4.84944 9.39069 5.12244 10.0732 5.71396C10.7557 6.25997 11.1197 7.07899 11.1197 8.17102C11.1197 9.21755 10.7557 10.0366 10.0732 10.6281C9.39069 11.1741 8.34415 11.4926 7.02462 11.4926H4.93156L10.9377 18.8638H14.6233L10.3007 13.5402Z" fill="#22283B"/>
<path fill-rule="evenodd" clip-rule="evenodd" d="M62.4904 8.07822C63.3549 6.75869 64.8565 6.07617 66.995 6.07617V8.80625C66.722 8.80625 66.4945 8.80625 66.3125 8.80625C65.175 8.80625 64.265 9.12475 63.6279 9.80727C62.9909 10.4898 62.6724 11.4453 62.6724 12.7193V18.862H59.7148V6.21268H62.5359V8.07822H62.4904Z" fill="#22283B"/>
<path fill-rule="evenodd" clip-rule="evenodd" d="M107.311 1.61868H106.219V1.11816H108.995V1.61868H107.903V4.39426H107.311V1.61868Z" fill="#22283B"/>
<path fill-rule="evenodd" clip-rule="evenodd" d="M112.726 4.39426L112.68 2.2102L111.634 4.03025H111.361L110.269 2.25569V4.39426H109.723V1.11816H110.223L111.497 3.30222L112.771 1.11816H113.272V4.39426H112.726Z" fill="#22283B"/>
<path fill-rule="evenodd" clip-rule="evenodd" d="M84.057 16.5001V18.8661H73.1367V17.0006L80.0984 8.58286H73.2732V6.2168H83.875V8.08234L76.9133 16.5001H84.057Z" fill="#22283B"/>
</svg>
