<svg width="37" height="32" viewBox="0 0 37 32" fill="none" xmlns="http://www.w3.org/2000/svg">
<path fill-rule="evenodd" clip-rule="evenodd" d="M1.71997 11.4102C11.6979 7.82506 21.6758 4.28312 31.6538 0.69797C34.9366 -0.511477 37.3987 1.30269 36.4484 4.75825L28.7166 29.5087C28.155 31.8844 25.7361 32.446 23.5332 30.5022L20.5096 28.2129L14.8943 23.9798L10.0133 27.349C10.0133 27.349 8.02638 28.2993 8.02638 26.0964V18.3645L26.3841 9.63924L15.1103 19.5308L24.8722 26.7011L32.0857 4.23992L5.39151 13.354L9.4086 15.4273L5.56428 17.2415L1.07205 14.8226C-0.785311 13.7859 -0.0078094 12.0581 1.71997 11.4102Z" fill="#4C70F0"/>
<path fill-rule="evenodd" clip-rule="evenodd" d="M14.8502 23.9798L12.6905 25.4916L9.88281 20.1787L14.8502 23.9798Z" fill="#2B3C89"/>
</svg>
