<svg width="15" height="15" viewBox="0 0 15 15" fill="none" xmlns="http://www.w3.org/2000/svg">
<path fill-rule="evenodd" clip-rule="evenodd" d="M11.0959 3.14146C11.5586 3.14146 11.9442 3.52703 11.9442 3.98971C11.9442 4.4524 11.5586 4.83797 11.0959 4.83797C10.6332 4.83797 10.2477 4.4524 10.2477 3.98971C10.2477 3.52703 10.6332 3.14146 11.0959 3.14146ZM7.47155 4.06683C9.39941 4.06683 10.9417 5.60912 10.9417 7.53698C10.9417 9.46484 9.39941 11.0071 7.47155 11.0071C5.54369 11.0071 4.0014 9.46484 4.0014 7.53698C4.0014 5.60912 5.54369 4.06683 7.47155 4.06683ZM7.47155 5.84046C6.54618 5.84046 5.77503 6.61161 5.77503 7.53698C5.77503 8.46235 6.54618 9.2335 7.47155 9.2335C8.39692 9.2335 9.16807 8.46235 9.16807 7.53698C9.16807 6.61161 8.39692 5.84046 7.47155 5.84046ZM10.9417 14.4773H4.0014C2.22777 14.4773 0.53125 12.7808 0.53125 11.0071V4.06683C0.53125 2.2932 2.22777 0.59668 4.0014 0.59668H10.9417C12.7153 0.59668 14.4118 2.2932 14.4118 4.06683V11.0071C14.4118 12.7808 12.7153 14.4773 10.9417 14.4773ZM4.0014 2.2932C3.15314 2.2932 2.30488 3.21857 2.30488 3.98971V10.93C2.30488 11.7783 3.23025 12.6265 4.0014 12.6265H10.9417C11.79 12.6265 12.6382 11.7012 12.6382 10.93V3.98971C12.6382 3.14146 11.7128 2.2932 10.9417 2.2932H4.0014Z" fill="white"/>
</svg>
